<svg xmlns="http://www.w3.org/2000/svg" style="display: none;">
    <symbol id="lock-icon" viewBox="0 0 512 512">
        <path d="M256 0C114.6 0 0 114.6 0 256s114.6 256 256 256 256-114.6 256-256S397.4 0 256 0zm0 424c-88.4 0-160-71.6-160-160S167.6 96 256 96s160 71.6 160 160-71.6 160-160 160zm0-288c-35.3 0-64 28.7-64 64s28.7 64 64 64 64-28.7 64-64-28.7-64-64-64z"/>
    </symbol>
    <symbol id="support-icon" viewBox="0 0 512 512">
        <path d="M256 0C114.6 0 0 114.6 0 256s114.6 256 256 256 256-114.6 256-256S397.4 0 256 0zm0 424c-88.4 0-160-71.6-160-160S167.6 96 256 96s160 71.6 160 160-71.6 160-160 160zm0-288c-35.3 0-64 28.7-64 64s28.7 64 64 64 64-28.7 64-64-28.7-64-64-64z"/>
    </symbol>
    <symbol id="friends-icon" viewBox="0 0 512 512">
        <path d="M464 256c0-106-86-192-192-192S32 150 32 256s86 192 192 192 192-86 192-192zm-128 128H128v-128h128v128zm0-256H128V64h128v192z"/>
    </symbol>
    <symbol id="profile-icon" viewBox="0 0 512 512">
        <path d="M256 512c141.4 0 256-114.6 256-256S397.4 0 256 0S32 114.6 32 256s114.6 256 256 256zm0-224c-23.2 0-42-18.8-42-42s18.8-42 42-42 42 18.8 42 42-18.8 42-42 42z"/>
    </symbol>
    <symbol id="exercises-icon" viewBox="0 0 24 24">
        <!-- Your exercises-icon svg code here -->
    </symbol>
    <symbol id="stats-icon" viewBox="0 0 24 24">
        <!-- Your stats-icon svg code here -->
    </symbol>
</svg>