<?xml version="1.0" encoding="utf-8"?><svg version="1.1" id="Layer_1" xmlns="http://www.w3.org/2000/svg" xmlns:xlink="http://www.w3.org/1999/xlink" x="0px" y="0px" width="122.88px" height="86.411px" viewBox="0 0 122.88 86.411" enable-background="new 0 0 122.88 86.411" xml:space="preserve"><g><path d="M57.055,28.881c-3.2,0-5.796,2.596-5.796,5.796s2.596,5.796,5.796,5.796c3.201,0,5.796-2.596,5.796-5.796 S60.255,28.881,57.055,28.881L57.055,28.881z M21.489,28.881c-3.201,0-5.796,2.596-5.796,5.796s2.596,5.796,5.796,5.796 s5.796-2.596,5.796-5.796S24.689,28.881,21.489,28.881L21.489,28.881z M39.271,28.881c-3.201,0-5.796,2.596-5.796,5.796 s2.595,5.796,5.796,5.796s5.796-2.596,5.796-5.796S42.472,28.881,39.271,28.881L39.271,28.881z M83.299,8.182h25.468 c7.763,0,14.113,6.351,14.113,14.113v24.907c0,7.761-6.352,14.113-14.113,14.113H97.803c1.568,6.206,3.468,11.781,9.272,16.929 c-11.098-2.838-19.665-8.576-25.952-16.929h-1.896c-0.736,0-1.509-0.059-2.302-0.168c4.193-3.396,7.105-7.659,7.105-12.275V38.493 c0.926,0.643,2.052,1.021,3.264,1.021c3.164,0,5.73-2.566,5.73-5.729s-2.566-5.729-5.73-5.729c-1.212,0-2.338,0.377-3.264,1.02 V13.535C84.031,11.683,83.774,9.888,83.299,8.182L83.299,8.182z M105.571,28.056c-3.164,0-5.729,2.566-5.729,5.729 s2.565,5.729,5.729,5.729s5.729-2.566,5.729-5.729S108.735,28.056,105.571,28.056L105.571,28.056z M19.542,0H59h0.004v0.014 c5.386,0.002,10.27,2.193,13.8,5.724l-0.007,0.007c3.536,3.539,5.73,8.422,5.731,13.796h0.014v0.002h-0.014v28.184h0.014v0.003 h-0.014c-0.002,5.746-3.994,10.752-9.312,14.248c-4.951,3.256-11.204,5.277-16.247,5.277v0.015h-0.002v-0.015h-0.404 c-3.562,4.436-7.696,8.225-12.429,11.333c-5.235,3.438-11.157,6.028-17.799,7.727l-0.003-0.012c-1.25,0.315-2.628-0.06-3.541-1.091 c-1.302-1.472-1.165-3.721,0.307-5.023c2.896-2.567,4.816-5.239,6.207-8.041c0.774-1.559,1.398-3.188,1.939-4.878h-7.702h-0.004 v-0.015c-5.385-0.001-10.27-2.193-13.799-5.723c-3.532-3.531-5.724-8.417-5.725-13.804H0v-0.002h0.014V19.542H0v-0.005h0.014 C0.016,14.263,2.126,9.466,5.541,5.952c0.062-0.073,0.127-0.145,0.196-0.214c3.531-3.531,8.417-5.724,13.803-5.725V0H19.542 L19.542,0z"/></g></svg>